<svg width="1440" height="220" viewBox="0 0 1440 220" fill="none" xmlns="http://www.w3.org/2000/svg">
<g clip-path="url(#clip0)">
<path d="M0 6.66669L60 15.5414C120 24.2454 240 41.9947 360 39.6053C480 37.3867 600 15.2 720 26.8053C840 38.5813 960 83.9787 1080 103.093C1200 122.208 1320 114.699 1380 111.115L1440 107.36V221.707H1380C1320 221.707 1200 221.707 1080 221.707C960 221.707 840 221.707 720 221.707C600 221.707 480 221.707 360 221.707C240 221.707 120 221.707 60 221.707H0V6.66669Z" fill="#287EFF"/>
</g>
<defs>
<clipPath id="clip0">
<rect width="1440" height="220" fill="white"/>
</clipPath>
</defs>
</svg>
